<?xml version="1.0" encoding="UTF-8" standalone="no"?>
<!-- Created with Inkscape (http://www.inkscape.org/) -->

<svg
   width="52.354576mm"
   height="55.824028mm"
   viewBox="0 0 52.354576 55.824027"
   version="1.1"
   id="svg1"
   xml:space="preserve"
   inkscape:version="1.3.2 (091e20e, 2023-11-25)"
   sodipodi:docname="quub-logo-all-blue.svg"
   inkscape:export-filename="favicon-32x32.png"
   inkscape:export-xdpi="14.560039"
   inkscape:export-ydpi="14.560039"
   xmlns:inkscape="http://www.inkscape.org/namespaces/inkscape"
   xmlns:sodipodi="http://sodipodi.sourceforge.net/DTD/sodipodi-0.dtd"
   xmlns="http://www.w3.org/2000/svg"
   xmlns:svg="http://www.w3.org/2000/svg"><sodipodi:namedview
     id="namedview1"
     pagecolor="#ffffff"
     bordercolor="#000000"
     borderopacity="0.25"
     inkscape:showpageshadow="2"
     inkscape:pageopacity="0.0"
     inkscape:pagecheckerboard="0"
     inkscape:deskcolor="#d1d1d1"
     inkscape:document-units="mm"
     showgrid="false"
     inkscape:zoom="0.70710678"
     inkscape:cx="226.27417"
     inkscape:cy="533.86562"
     inkscape:window-width="2176"
     inkscape:window-height="1662"
     inkscape:window-x="744"
     inkscape:window-y="25"
     inkscape:window-maximized="0"
     inkscape:current-layer="layer1" /><defs
     id="defs1" /><g
     inkscape:label="Layer 1"
     inkscape:groupmode="layer"
     id="layer1"
     transform="translate(-93.510574,-105.0502)"><rect
       style="fill:none;fill-opacity:1;stroke-width:0.264583"
       id="rect1"
       width="82.566399"
       height="129.97485"
       x="109.05936"
       y="92.725349" /><path
       id="path1"
       style="fill:#0000ff;fill-opacity:1;stroke:none;stroke-width:0.264583;stroke-dasharray:none"
       d="m 119.63006,105.05041 c -0.78732,0.006 -1.61752,0.14239 -2.34507,0.39326 -0.63953,0.22055 -6.70206,3.47943 -6.70242,3.60288 -8e-5,0.0265 3.52028,2.03931 7.86255,4.40128 2.8691,1.56063 3.24639,1.75792 4.11929,2.34583 -0.0271,0.0495 0.0712,-0.0919 -0.58091,0.3857 -1.0628,0.65821 -0.24953,0.15677 -0.78688,0.47659 l -0.65236,0.3754 -1.29764,0.7387 c -0.2062,0.1276 -2.04779,1.15429 -4.09275,2.28152 -2.04498,1.12723 -3.7777,2.10261 -3.85041,2.16679 -0.10576,0.0934 1.24026,0.87644 6.72825,3.91501 3.77328,2.08918 6.93019,3.79715 7.01559,3.79615 0.0854,-0.001 2.70827,-1.42107 5.82807,-3.15433 3.11979,-1.73327 5.67976,-3.14174 5.68906,-3.13004 0.0361,0.0455 0.14367,9.07119 0.14418,12.10107 l 5.1e-4,3.20187 1.98438,-1.10123 c 1.09157,-0.60582 3.15163,-1.74272 4.57801,-2.52646 l 2.59364,-1.42523 -0.0424,-6.22391 c -0.0471,-6.95321 -0.0324,-6.79568 -0.77205,-8.25118 -0.44975,-0.88504 -1.16856,-1.75895 -1.90272,-2.31304 -0.46817,-0.35333 -17.90164,-10.09468 -19.95486,-11.15022 -1.05435,-0.54203 -1.70986,-0.74544 -2.79518,-0.86765 -0.24738,-0.0279 -0.50547,-0.0406 -0.76791,-0.0388 z M 107.405,110.7834 c -0.0793,0 -9.260673,5.09118 -10.199904,5.65598 -1.487122,0.89427 -2.257436,1.67613 -2.935738,2.9807 -0.763917,1.46921 -0.709821,0.5259 -0.748791,13.12426 -0.02549,8.2426 -0.0036,11.48588 0.08165,12.01425 0.246962,1.53159 1.09102,3.02753 2.2934,4.06487 0.39271,0.33881 1.658659,1.10648 3.648873,2.21225 l 3.04788,1.69344 0.0501,-8.78653 c -0.0119,-4.37805 0.028,-4.53232 0.0471,-4.87403 0.005,-0.093 0.13583,0.0987 0.74596,0.50482 0.31287,0.20827 -0.65329,-0.36362 1.56214,0.93538 l 0.7604,0.44585 0.52762,0.25424 c 0.29016,0.13973 2.20074,1.18556 4.24572,2.32389 l 3.71812,2.06964 0.0258,-7.68376 c 0.0218,-6.42883 0.003,-7.69922 -0.11214,-7.78092 -0.076,-0.0537 -2.67901,-1.5047 -5.78466,-3.22409 -4.46881,-2.47408 -5.61985,-3.14971 -5.51593,-3.24011 0.0722,-0.0628 3.17419,-1.80084 6.89259,-3.86178 3.71842,-2.06097 6.72578,-3.77961 6.6828,-3.81941 -0.0984,-0.0911 -8.96721,-5.00899 -9.03304,-5.00899 z m 26.06298,20.48712 c -0.0691,0.0273 -3.20043,1.75866 -6.95875,3.84731 l -6.83369,3.7977 -0.0501,6.42751 -0.0501,6.42802 -6.86416,-3.79924 c -3.77531,-2.08958 -6.88415,-3.79926 -6.90862,-3.79926 -0.0245,0 -0.0444,2.2753 -0.0444,5.05654 v 5.05705 l 4.59713,2.55281 c 5.70838,3.16973 6.53989,3.59615 7.47086,3.83026 1.49706,0.37647 3.38306,0.22579 4.76404,-0.38085 0.99525,-0.43719 19.95295,-10.97844 20.55016,-11.42669 0.75367,-0.56568 1.44226,-1.40155 1.91462,-2.32492 0.71031,-1.3886 0.72699,-1.51053 0.77359,-5.52473 0.0299,-2.5688 0.0106,-3.5946 -0.0682,-3.5946 -0.0607,0 -3.60175,1.93772 -7.86929,4.30619 -5.14564,2.85585 -3.67038,2.14216 -3.9141,2.17356 -0.92295,0.49609 -0.17734,1.11898 -0.27829,-0.71485 -0.009,-0.16269 -0.0311,0.93216 -0.0202,0.80772 l -0.0848,-3.32011 v -4.72425 c 0,-3.74183 -0.0261,-4.71457 -0.12557,-4.67517 z"
       sodipodi:nodetypes="cssscccccscssscscccccsssccccssscssccsssccccccssssccsccccsssccsssscsscsccsss" /></g></svg>
